<?xml version="1.0" encoding="UTF-8"?>
<svg version="1.1" xmlns="http://www.w3.org/2000/svg" width="630" height="396">
<path d="M0 0 C44.55 0 89.1 0 135 0 C137.25032039 6.75096118 137.25032039 6.75096118 137.5625 10.38012695 C137.63605209 11.19538849 137.70960419 12.01065002 137.78538513 12.85061646 C137.85620804 13.72104584 137.92703094 14.59147522 138 15.48828125 C138.08053116 16.4110788 138.16106232 17.33387634 138.24403381 18.28463745 C138.5038955 21.29331241 138.75238537 24.30279425 139 27.3125 C139.17748162 29.40732247 139.35513605 31.5021303 139.53295898 33.59692383 C140.63675546 46.76447004 141.55340291 59.93134584 142.27905273 73.12475586 C142.83841197 83.06404404 143.66474028 92.96158986 144.5625 102.875 C145.54631806 113.78787765 146.33662775 124.67395118 146.75 135.625 C146.81682983 137.34178955 146.81682983 137.34178955 146.88500977 139.09326172 C147.07028376 144.93553815 147.07028376 144.93553815 147 147 C146 148 146 148 142.2424469 148.084198 C140.5229976 148.07120595 138.80358396 148.05293252 137.08422852 148.03076172 C135.1409182 148.01464493 133.19760435 147.99894874 131.25428772 147.98361206 C130.21668871 147.97407375 129.1790897 147.96453545 128.11004829 147.9547081 C121.44900471 147.90312779 114.78770763 147.90891301 108.12649632 147.90334892 C102.28386758 147.89517477 96.4425806 147.86783265 90.6003418 147.79785156 C84.94458209 147.7312309 79.29094576 147.71953771 73.63487053 147.74310684 C71.49214207 147.74250183 69.34931936 147.72276102 67.20697212 147.68233871 C52.38064661 147.41722981 42.75224043 149.79959712 30.76372528 158.70398712 C28.39232082 160.44653215 25.91054923 161.98677728 23.40234375 163.5234375 C21.15443832 164.95583263 18.90960801 166.39289117 16.66601562 167.83203125 C12.85857414 170.25644179 9.02360644 172.63212833 5.12890625 174.9140625 C4.40904541 175.33896973 3.68918457 175.76387695 2.94750977 176.20166016 C1 177 1 177 -2 176 C-1.35683247 172.08289072 -0.71000458 168.1663945 -0.0625 164.25 C0.11990234 163.13882813 0.30230469 162.02765625 0.49023438 160.8828125 C0.66748047 159.81289063 0.84472656 158.74296875 1.02734375 157.640625 C1.27085571 156.16384277 1.27085571 156.16384277 1.51928711 154.65722656 C1.92690527 152.40404421 2.41046851 150.21131655 3 148 C2.00097656 148.01160156 1.00195312 148.02320313 -0.02734375 148.03515625 C-1.31769531 148.04417969 -2.60804688 148.05320312 -3.9375 148.0625 C-5.22527344 148.07410156 -6.51304687 148.08570313 -7.83984375 148.09765625 C-11 148 -11 148 -12 147 C-11.97007611 145.34808682 -11.86484487 143.6974918 -11.73046875 142.05078125 C-11.64740479 140.99117187 -11.56434082 139.9315625 -11.47875977 138.83984375 C-11.38264404 137.67582031 -11.28652832 136.51179687 -11.1875 135.3125 C-10.99104529 132.81910015 -10.79577368 130.32560685 -10.6015625 127.83203125 C-10.50004883 126.53475098 -10.39853516 125.2374707 -10.29394531 123.90087891 C-9.83200011 117.77051304 -9.45175157 111.63532661 -9.0625 105.5 C-8.30888453 93.80943531 -7.34231245 82.14853446 -6.30352783 70.48068237 C-5.3318659 59.5157579 -4.56140006 48.55248282 -3.9375 37.5625 C-3.41464755 28.38036626 -2.8462957 19.21567346 -1.9375 10.0625 C-1.85814209 9.25176025 -1.77878418 8.44102051 -1.69702148 7.60571289 C-1.13217899 2.26435799 -1.13217899 2.26435799 0 0 Z M20.9375 17.625 C19.61785176 20.96810888 20.61363109 22.78946147 22 26 C26.59854277 27.12319413 26.59854277 27.12319413 31 26 C32.57279672 22.85440657 31.7415208 20.33684358 31 17 C29.83524938 15.62228238 29.83524938 15.62228238 26.625 15.6875 C23.04032116 15.66229805 23.04032116 15.66229805 20.9375 17.625 Z M104 17 C103.67539739 21.03083011 103.67539739 21.03083011 104 25 C106.82568546 27.32038095 106.82568546 27.32038095 110.0625 26.8125 C113.29740953 26.26245502 113.29740953 26.26245502 115 23 C114.81767408 19.17251095 114.81767408 19.17251095 113 16 C111.12678052 15.83946185 111.12678052 15.83946185 109 15.875 C108.278125 15.87242187 107.55625 15.86984375 106.8125 15.8671875 C104.97910585 15.80304724 104.97910585 15.80304724 104 17 Z M22.30859375 56.68359375 C19.52595232 61.6092844 21.36799356 67.62508921 22.7578125 72.84765625 C26.97760773 85.45385125 35.06197052 95.91518427 47 102 C57.61106768 106.9319047 69.74068974 108.92766637 81 105 C86.87426608 102.36670831 92.63566672 99.57622218 98 96 C98 95.34 98 94.68 98 94 C98.99 93.67 99.98 93.34 101 93 C101 92.34 101 91.68 101 91 C101.66 91 102.32 91 103 91 C110.79289795 82.15586069 114.70309354 70.81403726 114.17578125 59.16796875 C114.11777344 58.45253906 114.05976563 57.73710937 114 57 C112.35 56.34 110.7 55.68 109 55 C105.41695987 57.6872801 105.36691663 60.66755564 104.75 64.9375 C103.07878673 74.53244907 99.30118084 82.6395445 91.6875 89 C90.15546717 90.04607918 88.59260497 91.0486769 87 92 C86.29746094 92.43183594 85.59492188 92.86367188 84.87109375 93.30859375 C76.47989823 97.52608159 64.91054022 97.84045529 55.89892578 95.44042969 C45.8479582 91.85527537 38.36286178 85.18038973 33.625 75.6875 C31.7984349 71.15698045 31.15207827 66.53190874 30.58984375 61.69921875 C29.93787269 58.71569553 29.14308533 57.1636425 27 55 C23.95662222 54.64726597 23.95662222 54.64726597 22.30859375 56.68359375 Z " fill="#01B4BF" transform="translate(249,214)"/>
<path d="M0 0 C5.00973898 4.05357912 8.95898556 8.37879832 12.5 13.75 C12.89703125 14.32234375 13.2940625 14.8946875 13.703125 15.484375 C19.74924848 24.95964314 20.23983878 35.85160563 19.5 46.75 C18.5 47.75 18.5 47.75 15.8125 47.8828125 C14.719375 47.88023437 13.62625 47.87765625 12.5 47.875 C11.406875 47.87757813 10.31375 47.88015625 9.1875 47.8828125 C6.5 47.75 6.5 47.75 5.5 46.75 C5.39146509 45.00138208 5.31416572 43.25080759 5.25 41.5 C4.4924158 31.85801924 1.4200706 22.52316373 -5.41015625 15.46875 C-14.63178852 7.88460383 -23.84468531 6.10153447 -35.5 6.75 C-45.83253466 8.70961864 -53.39242012 14.3348051 -59.5 22.75 C-62.58511676 27.78514339 -63.154393 32.30909879 -63.625 38.0625 C-64.39079966 46.64079966 -64.39079966 46.64079966 -65.5 47.75 C-67.66480797 47.8489294 -69.83293785 47.879711 -72 47.875 C-73.1859375 47.87757813 -74.371875 47.88015625 -75.59375 47.8828125 C-78.5 47.75 -78.5 47.75 -79.5 46.75 C-80.11298576 38.27429311 -79.72592048 30.63848571 -76.5 22.75 C-76.17128906 21.93015625 -75.84257812 21.1103125 -75.50390625 20.265625 C-69.94109377 7.86959995 -59.66013778 -1.44348875 -47.1875 -6.625 C-31.21760039 -12.6962015 -13.7596724 -9.77210565 0 0 Z " fill="#0CB3BC" transform="translate(346.5,159.25)"/>
<path d="M0 0 C44.55 0 89.1 0 135 0 C137.25032039 6.75096118 137.25032039 6.75096118 137.5625 10.38012695 C137.63605209 11.19538849 137.70960419 12.01065002 137.78538513 12.85061646 C137.85620804 13.72104584 137.92703094 14.59147522 138 15.48828125 C138.08053116 16.4110788 138.16106232 17.33387634 138.24403381 18.28463745 C138.5038955 21.29331241 138.75238537 24.30279425 139 27.3125 C139.17748162 29.40732247 139.35513605 31.5021303 139.53295898 33.59692383 C140.63675546 46.76447004 141.55340291 59.93134584 142.27905273 73.12475586 C142.83841197 83.06404404 143.66474028 92.96158986 144.5625 102.875 C145.54631806 113.78787765 146.33662775 124.67395118 146.75 135.625 C146.81682983 137.34178955 146.81682983 137.34178955 146.88500977 139.09326172 C147.07028376 144.93553815 147.07028376 144.93553815 147 147 C146 148 146 148 142.2424469 148.084198 C140.5229976 148.07120595 138.80358396 148.05293252 137.08422852 148.03076172 C135.1409182 148.01464493 133.19760435 147.99894874 131.25428772 147.98361206 C130.21668871 147.97407375 129.1790897 147.96453545 128.11004829 147.9547081 C121.44900471 147.90312779 114.78770763 147.90891301 108.12649632 147.90334892 C102.28386758 147.89517477 96.4425806 147.86783265 90.6003418 147.79785156 C84.94458209 147.7312309 79.29094576 147.71953771 73.63487053 147.74310684 C71.49214207 147.74250183 69.34931936 147.72276102 67.20697212 147.68233871 C52.38064661 147.41722981 42.75224043 149.79959712 30.76372528 158.70398712 C28.39232082 160.44653215 25.91054923 161.98677728 23.40234375 163.5234375 C21.15443832 164.95583263 18.90960801 166.39289117 16.66601562 167.83203125 C12.85857414 170.25644179 9.02360644 172.63212833 5.12890625 174.9140625 C4.40904541 175.33896973 3.68918457 175.76387695 2.94750977 176.20166016 C1 177 1 177 -2 176 C-1.35683247 172.08289072 -0.71000458 168.1663945 -0.0625 164.25 C0.11990234 163.13882813 0.30230469 162.02765625 0.49023438 160.8828125 C0.66748047 159.81289063 0.84472656 158.74296875 1.02734375 157.640625 C1.27085571 156.16384277 1.27085571 156.16384277 1.51928711 154.65722656 C1.92690527 152.40404421 2.41046851 150.21131655 3 148 C2.00097656 148.01160156 1.00195312 148.02320313 -0.02734375 148.03515625 C-1.31769531 148.04417969 -2.60804688 148.05320312 -3.9375 148.0625 C-5.22527344 148.07410156 -6.51304687 148.08570313 -7.83984375 148.09765625 C-11 148 -11 148 -12 147 C-11.97007611 145.34808682 -11.86484487 143.6974918 -11.73046875 142.05078125 C-11.64732422 140.99020508 -11.56417969 139.92962891 -11.47851562 138.83691406 C-11.38248047 137.67385742 -11.28644531 136.51080078 -11.1875 135.3125 C-10.99235774 132.8347243 -10.79838981 130.35685589 -10.60546875 127.87890625 C-10.50411621 126.58355957 -10.40276367 125.28821289 -10.29833984 123.95361328 C-9.81554933 117.55565132 -9.41099844 111.15290135 -9 104.75 C-8.18083245 92.14886725 -7.16105172 79.57394305 -6 67 C-5.67 67 -5.34 67 -5 67 C-4.79379436 77.66541408 -4.94159251 88.14651907 -6.07324219 98.75732422 C-7.12651428 108.75976453 -7.86625629 118.78430393 -8.625 128.8125 C-8.7614595 130.60782992 -8.89793381 132.40315872 -9.03442383 134.19848633 C-9.35821976 138.46551315 -9.67976832 142.73270427 -10 147 C-8.94039062 146.98839844 -7.88078125 146.97679687 -6.7890625 146.96484375 C-5.40104342 146.95546524 -4.01302245 146.94636511 -2.625 146.9375 C-1.92632812 146.92912109 -1.22765625 146.92074219 -0.5078125 146.91210938 C4.7734375 146.88671875 4.7734375 146.88671875 7 148 C6.54593375 155.95398808 5.12888539 163.32797907 3 171 C5.97 170.01 5.97 170.01 9 169 C9 168.34 9 167.68 9 167 C9.99 167 10.98 167 12 167 C12 166.34 12 165.68 12 165 C12.639375 164.71125 13.27875 164.4225 13.9375 164.125 C16.15206079 163.17176549 16.15206079 163.17176549 17 161 C17.99 160.690625 18.98 160.38125 20 160.0625 C20.99 159.711875 21.98 159.36125 23 159 C23.33 158.01 23.66 157.02 24 156 C25.99541868 155.31974363 27.99617991 154.65509503 30 154 C31.67523395 152.67744688 33.34106818 151.34294481 35 150 C37.08063132 148.87266174 39.18819015 147.84166217 41.328125 146.83203125 C42.99093197 146.11506873 42.99093197 146.11506873 44 145 C47.07382396 144.87461307 50.12625009 144.81387139 53.20141602 144.79467773 C54.16716553 144.78477814 55.13291504 144.77487854 56.12792969 144.76467896 C59.33656316 144.73296099 62.54521148 144.708266 65.75390625 144.68359375 C67.97208553 144.6630331 70.19026082 144.64203688 72.40843201 144.62062073 C78.25935641 144.56530818 84.1103167 144.51593954 89.96130371 144.46777344 C95.9267091 144.41762529 101.89206208 144.36190441 107.85742188 144.30664062 C119.57156986 144.1989468 131.28576327 144.09752693 143 144 C142.73706609 139.71306732 142.47041327 135.42638632 142.20043945 131.13989258 C142.10926866 129.68422579 142.01908186 128.22849701 141.92993164 126.77270508 C141.80098328 124.66991034 141.6683975 122.56737033 141.53515625 120.46484375 C141.456604 119.202771 141.37805176 117.94069824 141.29711914 116.64038086 C141.00513756 113.06294677 140.50939903 109.55179808 140 106 C139.91686294 104.50066343 139.86557112 102.99893588 139.8581543 101.49731445 C139.85096375 100.67727432 139.84377319 99.85723419 139.83636475 99.01234436 C139.83035248 97.70105812 139.83035248 97.70105812 139.82421875 96.36328125 C139.80375537 94.42479274 139.78213861 92.48631614 139.75952148 90.54785156 C139.74831268 89.53146606 139.73710388 88.51508057 139.72555542 87.46789551 C139.48617888 67.6197983 138.42151811 48.00985794 136.37182617 28.2668457 C136.28245789 27.39496109 136.1930896 26.52307648 136.10101318 25.62477112 C135.93541614 24.02985951 135.76389169 22.4355431 135.58428955 20.84214783 C134.90909317 14.45887094 135 8.54021003 135 2 C90.78 2 46.56 2 1 2 C0.67 9.59 0.34 17.18 0 25 C-1 36 -1 36 -2 39 C-2.2173955 41.06266705 -2.3894543 43.13025111 -2.53515625 45.19921875 C-2.66567383 47.01196289 -2.66567383 47.01196289 -2.79882812 48.86132812 C-2.9293457 50.7552832 -2.9293457 50.7552832 -3.0625 52.6875 C-3.15337891 53.96173828 -3.24425781 55.23597656 -3.33789062 56.54882812 C-3.56205947 59.69899026 -3.78261653 62.84936354 -4 66 C-4.33 66 -4.66 66 -5 66 C-5.1500697 56.99462712 -4.6888754 48.0457375 -4.125 39.0625 C-4.08053741 38.3402121 -4.03607483 37.61792419 -3.99026489 36.87374878 C-3.43649911 27.92448264 -2.81886481 18.98652933 -1.9375 10.0625 C-1.85838379 9.25369385 -1.77926758 8.4448877 -1.69775391 7.61157227 C-1.13197454 2.26394909 -1.13197454 2.26394909 0 0 Z " fill="#57C8CC" transform="translate(249,214)"/>
<path d="M0 0 C3.0625 0.3125 3.0625 0.3125 4.6640625 1.34765625 C7.11144615 4.78629865 7.22158753 9.05942508 7.79101562 13.15625 C8.39725803 16.9730661 9.21457059 19.87213632 11.22265625 23.203125 C11.82980469 24.22921875 12.43695313 25.2553125 13.0625 26.3125 C12.7325 26.9725 12.4025 27.6325 12.0625 28.3125 C6.33704591 21.29841095 4.5060716 12.06890142 3.0625 3.3125 C1.7425 2.9825 0.4225 2.6525 -0.9375 2.3125 C-4.00643615 6.91590422 -2.86955326 11.01952604 -1.9375 16.3125 C1.25619087 28.39226339 7.80324568 38.09853885 18.0625 45.3125 C29.05414373 51.12515417 41.00561359 54.16315338 53.375 51.25390625 C58.15111129 49.58087889 62.59852664 47.23938245 67.05859375 44.87109375 C70.0625 43.3125 70.0625 43.3125 73.0625 42.3125 C73.0625 41.6525 73.0625 40.9925 73.0625 40.3125 C74.4375 38.6875 74.4375 38.6875 76.0625 37.3125 C76.7225 37.3125 77.3825 37.3125 78.0625 37.3125 C78.31902344 36.796875 78.57554687 36.28125 78.83984375 35.75 C79.80325697 33.82932955 80.77674049 31.9137103 81.75390625 30 C82.37769749 28.77088069 83.00139307 27.54171283 83.625 26.3125 C83.94146484 25.69632812 84.25792969 25.08015625 84.58398438 24.4453125 C87.36860349 18.9351957 88.19185158 15.21284497 88.125 9.0625 C88.11597656 7.98484375 88.10695313 6.9071875 88.09765625 5.796875 C88.08605469 4.97703125 88.07445312 4.1571875 88.0625 3.3125 C86.0825 2.9825 84.1025 2.6525 82.0625 2.3125 C81.92714844 3.40046875 81.79179687 4.4884375 81.65234375 5.609375 C79.95197007 17.77016996 76.92276822 27.52372849 67.25 35.8125 C59.03845962 41.6953946 52.40728566 43.64252836 42.375 43.75 C41.16275757 43.76546875 41.16275757 43.76546875 39.92602539 43.78125 C34.59221342 43.70230366 30.82691777 42.71703213 26.0625 40.3125 C29.75317714 39.1525729 32.01697161 39.81362055 35.7265625 40.8203125 C45.62436836 42.90580337 54.30605086 40.83468194 62.75 35.5625 C70.67856962 29.98621107 75.88543192 22.79829663 78.0625 13.3125 C78.30287682 10.72352343 78.49607567 8.14402481 78.62109375 5.546875 C79.16088247 2.81449314 79.79013039 1.90518763 82.0625 0.3125 C84.25390625 -0.0859375 84.25390625 -0.0859375 86.625 -0.0625 C87.80255859 -0.07410156 87.80255859 -0.07410156 89.00390625 -0.0859375 C90.02291016 0.11128906 90.02291016 0.11128906 91.0625 0.3125 C93.41369399 3.83929099 93.27693452 5.34129485 93.1875 9.5 C93.16945313 10.58667969 93.15140625 11.67335938 93.1328125 12.79296875 C93.10960937 13.62441406 93.08640625 14.45585937 93.0625 15.3125 C92.0725 15.6425 91.0825 15.9725 90.0625 16.3125 C89.93294922 17.18648438 89.93294922 17.18648438 89.80078125 18.078125 C88.33479269 26.63196652 86.06056435 36.61137422 79.0625 42.3125 C78.0725 42.3125 77.0825 42.3125 76.0625 42.3125 C75.7325 43.3025 75.4025 44.2925 75.0625 45.3125 C73.4125 45.6425 71.7625 45.9725 70.0625 46.3125 C70.0625 46.9725 70.0625 47.6325 70.0625 48.3125 C68.9075 48.580625 67.7525 48.84875 66.5625 49.125 C63.59116828 49.85995837 60.78474404 50.75369154 57.9375 51.875 C47.04299887 56.03930738 34.9313788 55.19635207 24.0625 51.3125 C13.24265119 46.43390746 3.32616642 36.99617937 -1.9375 26.3125 C-4.74712373 18.63143742 -5.96025785 10.46799767 -4.9375 2.3125 C-2.9375 0.3125 -2.9375 0.3125 0 0 Z " fill="#3BB8BF" transform="translate(273.9375,267.6875)"/>
<path d="M0 0 C44.55 0 89.1 0 135 0 C137.25077266 6.75231798 137.25077266 6.75231798 137.59423828 10.5546875 C137.7141362 11.82892578 137.7141362 11.82892578 137.8364563 13.12890625 C137.91362885 14.03511719 137.99080139 14.94132813 138.0703125 15.875 C138.19924393 17.31552734 138.19924393 17.31552734 138.33078003 18.78515625 C138.51082681 20.82226875 138.68710228 22.85971762 138.85986328 24.89746094 C139.1194867 27.9354853 139.39673565 30.97151882 139.67578125 34.0078125 C140.85805831 47.36941986 141.22273204 60.58988105 141 74 C140.67 74 140.34 74 140 74 C139.89042969 72.68515625 139.78085937 71.3703125 139.66796875 70.015625 C139.55557861 68.66839355 139.55557861 68.66839355 139.44091797 67.29394531 C139.26872503 65.22563941 139.09719936 63.15727786 138.92626953 61.08886719 C138.43191484 55.12062667 137.92837481 49.15345191 137.4065094 43.18756104 C137.12832656 40.00024304 136.85423151 36.81257878 136.58047485 33.62487793 C136.4449142 32.05806818 136.30756267 30.4914122 136.16830444 28.92492676 C135.96940389 26.68471303 135.77709354 24.4440112 135.5859375 22.203125 C135.4729834 20.91051758 135.3600293 19.61791016 135.24365234 18.28613281 C134.9355112 12.86556571 135 7.42931844 135 2 C90.78 2 46.56 2 1 2 C0.67 9.59 0.34 17.18 0 25 C-1 36 -1 36 -2 39 C-2.2173955 41.06266705 -2.3894543 43.13025111 -2.53515625 45.19921875 C-2.62216797 46.40771484 -2.70917969 47.61621094 -2.79882812 48.86132812 C-2.88583984 50.12396484 -2.97285156 51.38660156 -3.0625 52.6875 C-3.15337891 53.96173828 -3.24425781 55.23597656 -3.33789062 56.54882812 C-3.56205947 59.69899026 -3.78261653 62.84936354 -4 66 C-4.33 66 -4.66 66 -5 66 C-5.1500697 56.99462712 -4.6888754 48.0457375 -4.125 39.0625 C-4.08053741 38.3402121 -4.03607483 37.61792419 -3.99026489 36.87374878 C-3.43649911 27.92448264 -2.81886481 18.98652933 -1.9375 10.0625 C-1.85838379 9.25369385 -1.77926758 8.4448877 -1.69775391 7.61157227 C-1.13197454 2.26394909 -1.13197454 2.26394909 0 0 Z " fill="#ACEAEC" transform="translate(249,214)"/>
<path d="M0 0 C44.22 0 88.44 0 134 0 C135.98 23.76 135.98 23.76 138 48 C138.33 50.64 138.66 53.28 139 56 C139.0628389 58.33258006 139.08680521 60.66670025 139.0625 63 C139.05347656 64.134375 139.04445313 65.26875 139.03515625 66.4375 C139.01775391 67.7059375 139.01775391 67.7059375 139 69 C133.63254326 60.9488149 134.69244593 47.24037605 134.34155273 37.79125977 C134.31005127 36.98100342 134.2785498 36.17074707 134.24609375 35.3359375 C134.22216553 34.61970215 134.1982373 33.9034668 134.17358398 33.16552734 C133.98019567 30.7529333 133.47466624 28.37333121 133 26 C133 17.75 133 9.5 133 1 C90.1 1.33 47.2 1.66 3 2 C2.18400879 9.12059353 2.18400879 9.12059353 1.71875 16.21875 C1.68136719 17.08757812 1.64398438 17.95640625 1.60546875 18.8515625 C1.53391373 20.64838845 1.46364362 22.44526594 1.39453125 24.2421875 C1.35714844 25.10070312 1.31976563 25.95921875 1.28125 26.84375 C1.25095703 27.61912109 1.22066406 28.39449219 1.18945312 29.19335938 C1 31 1 31 0 32 C-0.15582303 33.34015221 -0.25044142 34.68758903 -0.31640625 36.03515625 C-0.35830078 36.84404297 -0.40019531 37.65292969 -0.44335938 38.48632812 C-0.48267578 39.33646484 -0.52199219 40.18660156 -0.5625 41.0625 C-0.60568359 41.91650391 -0.64886719 42.77050781 -0.69335938 43.65039062 C-0.79976702 45.76672037 -0.90041731 47.88333813 -1 50 C-1.66 50 -2.32 50 -3 50 C-3.33 50.66 -3.66 51.32 -4 52 C-4.02698422 49.56242587 -4.04683099 47.12515085 -4.0625 44.6875 C-4.07087891 43.99720703 -4.07925781 43.30691406 -4.08789062 42.59570312 C-4.10307906 39.4516975 -4.00193327 37.00579981 -3 34 C-2.01 22.78 -1.02 11.56 0 0 Z " fill="#1DACB2" transform="translate(250,216)"/>
<path d="M0 0 C0.33 0 0.66 0 1 0 C5.204881 45.41213035 5.204881 45.41213035 5.8125 62.3125 C5.87328735 63.96149292 5.87328735 63.96149292 5.93530273 65.64379883 C6.0888704 71.057838 6.0888704 71.057838 6 73 C5 74 5 74 1.2424469 74.084198 C-0.4770024 74.07120595 -2.19641604 74.05293252 -3.91577148 74.03076172 C-5.8590818 74.01464493 -7.80239565 73.99894874 -9.74571228 73.98361206 C-10.78331129 73.97407375 -11.8209103 73.96453545 -12.88995171 73.9547081 C-19.55099529 73.90312779 -26.21229237 73.90891301 -32.87350368 73.90334892 C-38.71613242 73.89517477 -44.5574194 73.86783265 -50.3996582 73.79785156 C-56.05541791 73.7312309 -61.70905424 73.71953771 -67.36512947 73.74310684 C-69.50785793 73.74250183 -71.65068064 73.72276102 -73.79302788 73.68233871 C-88.61935339 73.41722981 -98.24775957 75.79959712 -110.23627472 84.70398712 C-112.60767918 86.44653215 -115.08945077 87.98677728 -117.59765625 89.5234375 C-119.84556168 90.95583263 -122.09039199 92.39289117 -124.33398438 93.83203125 C-128.14142586 96.25644179 -131.97639356 98.63212833 -135.87109375 100.9140625 C-136.59095459 101.33896973 -137.31081543 101.76387695 -138.05249023 102.20166016 C-140 103 -140 103 -143 102 C-142.01 96.72 -141.02 91.44 -140 86 C-139.67 86 -139.34 86 -139 86 C-138.80613356 91.52519352 -139.3538693 95.65331565 -141 101 C-129.59973096 94.07635176 -118.26013607 87.0623079 -106.97460938 79.95288086 C-105.99556641 79.33807861 -105.01652344 78.72327637 -104.0078125 78.08984375 C-103.13785645 77.54191162 -102.26790039 76.99397949 -101.37158203 76.42944336 C-97.71561148 74.22584983 -95.09060724 72.75449701 -90.76055908 72.7215271 C-89.92205917 72.71036362 -89.08355927 72.69920013 -88.21965027 72.68769836 C-87.30830826 72.68553818 -86.39696625 72.68337799 -85.45800781 72.68115234 C-84.49182022 72.67110672 -83.52563263 72.6610611 -82.53016663 72.65071106 C-79.33782545 72.61982994 -76.14556832 72.60283009 -72.953125 72.5859375 C-70.73923009 72.56722983 -68.52534233 72.54765673 -66.3114624 72.5272522 C-60.48525205 72.47588268 -54.65901856 72.43628266 -48.83270264 72.39910889 C-42.88710791 72.35909952 -36.94160979 72.30799317 -30.99609375 72.2578125 C-19.33079699 72.1609961 -7.66544574 72.07660952 4 72 C3.73788011 67.95055904 3.47353579 63.90126943 3.20730591 59.85209656 C3.11740944 58.48036942 3.02807581 57.10860525 2.93936157 55.73680115 C2.37910879 47.0805987 1.71404518 38.44602714 0.875 29.8125 C-0.04602081 19.85262743 -0.20995888 9.99637547 0 0 Z " fill="#BBF4F5" transform="translate(390,288)"/>
<path d="M0 0 C3.0625 0.3125 3.0625 0.3125 4.6640625 1.34765625 C7.11144615 4.78629865 7.22158753 9.05942508 7.79101562 13.15625 C8.39725803 16.9730661 9.21457059 19.87213632 11.22265625 23.203125 C11.82980469 24.22921875 12.43695313 25.2553125 13.0625 26.3125 C12.7325 26.9725 12.4025 27.6325 12.0625 28.3125 C6.33704591 21.29841095 4.5060716 12.06890142 3.0625 3.3125 C1.7425 2.9825 0.4225 2.6525 -0.9375 2.3125 C-4.00643615 6.91590422 -2.86955326 11.01952604 -1.9375 16.3125 C1.25619087 28.39226339 7.80324568 38.09853885 18.0625 45.3125 C29.06134633 51.12896308 40.99718373 54.14868406 53.375 51.2578125 C57.5478897 49.79002281 61.43965958 47.79807709 65.32983398 45.70117188 C68.14081475 44.19266645 69.81570689 43.3125 73.0625 43.3125 C60.65486254 52.30354164 48.32637664 56.13969374 32.96875 53.8515625 C18.99836753 50.79104057 8.99881231 42.33001996 0.625 30.9375 C-4.5864183 22.53722517 -6.15950954 12.05683579 -4.9375 2.3125 C-2.9375 0.3125 -2.9375 0.3125 0 0 Z " fill="#CDF9FB" transform="translate(273.9375,267.6875)"/>
<path d="M0 0 C0.33 0 0.66 0 1 0 C1.47821456 60.44631991 1.47821456 60.44631991 -3 78 C-3.06624507 79.74886981 -3.08552595 81.50002748 -3.0625 83.25 C-3.041875 84.8175 -3.02125 86.385 -3 88 C0.96 88.33 4.92 88.66 9 89 C9 89.66 9 90.32 9 91 C4.05 91 -0.9 91 -6 91 C-6.16435893 80.47388224 -5.62273396 70.15070838 -4.77319336 59.66577148 C-4.56088886 57.04259314 -4.35696378 54.4188608 -4.15429688 51.79492188 C-4.02131561 50.10412867 -3.88786891 48.41337199 -3.75390625 46.72265625 C-3.6934462 45.94962662 -3.63298615 45.17659698 -3.57069397 44.38014221 C-3.29786347 41.03680626 -2.96323541 37.74387105 -2.48632812 34.42138672 C-1.97007775 30.78949276 -1.69270761 27.19616896 -1.46484375 23.53515625 C-1.42186661 22.85698349 -1.37888947 22.17881073 -1.33460999 21.48008728 C-1.19964561 19.34104473 -1.06850637 17.20178823 -0.9375 15.0625 C-0.84595732 13.60089552 -0.75416277 12.13930678 -0.66210938 10.67773438 C-0.43849697 7.11866684 -0.21831138 3.55939709 0 0 Z " fill="#2BB3BA" transform="translate(245,270)"/>
<path d="M0 0 C0 0.33 0 0.66 0 1 C-1.14597656 0.97679687 -2.29195313 0.95359375 -3.47265625 0.9296875 C-5.0025976 0.91091521 -6.53254606 0.89271659 -8.0625 0.875 C-8.81466797 0.85824219 -9.56683594 0.84148437 -10.34179688 0.82421875 C-19.78392334 0.74246874 -28.3096251 3.57881183 -35.24609375 10.1171875 C-41.67394387 17.12295442 -44.35608502 22.9121375 -45.125 32.3125 C-45.89079966 40.89079966 -45.89079966 40.89079966 -47 42 C-49.16480797 42.0989294 -51.33293785 42.129711 -53.5 42.125 C-54.6859375 42.12757813 -55.871875 42.13015625 -57.09375 42.1328125 C-60 42 -60 42 -61 41 C-61.59875064 32.72112098 -61.45475029 24.67017954 -58 17 C-57.34 16.34 -56.68 15.68 -56 15 C-56.21462891 16.44052734 -56.21462891 16.44052734 -56.43359375 17.91015625 C-57.07621188 22.40848316 -57.57113204 26.92055453 -58.0625 31.4375 C-58.15337891 32.26443359 -58.24425781 33.09136719 -58.33789062 33.94335938 C-58.55960518 35.96212876 -58.77994503 37.98104904 -59 40 C-55.37 40 -51.74 40 -48 40 C-48.08701172 38.80117187 -48.08701172 38.80117187 -48.17578125 37.578125 C-48.57732184 27.8034799 -46.7138073 19.39143656 -40.5625 11.5625 C-29.81239079 0.81239079 -15.10590841 -6.36038249 0 0 Z " fill="#B5F0F2" transform="translate(328,165)"/>
<path d="M0 0 C0.99 0.33 1.98 0.66 3 1 C2.85433594 1.5671875 2.70867187 2.134375 2.55859375 2.71875 C1.82296823 5.72298289 1.21516671 8.75077848 0.59765625 11.78125 C0 14 0 14 -1.02734375 15.859375 C-2.36988772 18.81405009 -2.43136221 21.52270342 -2.625 24.75 C-2.73714844 26.50570312 -2.73714844 26.50570312 -2.8515625 28.296875 C-2.92503906 29.63492188 -2.92503906 29.63492188 -3 31 C-5.31 31 -7.62 31 -10 31 C-10.24091535 23.7725395 -9.34495828 17.09705662 -8 10 C-7.34 10 -6.68 10 -6 10 C-5.67 8.02 -5.34 6.04 -5 4 C-4.34 4 -3.68 4 -3 4 C-3 3.34 -3 2.68 -3 2 C-2.01 1.34 -1.02 0.68 0 0 Z M-2 4 C-2.66 4.66 -3.32 5.32 -4 6 C-3.01 7.485 -3.01 7.485 -2 9 C-1.67 7.35 -1.34 5.7 -1 4 C-1.33 4 -1.66 4 -2 4 Z " fill="#02B5BE" transform="translate(281,172)"/>
<path d="M0 0 C4.99503321 4.0162767 8.9330987 8.43732658 12.5 13.75 C12.17 14.41 11.84 15.07 11.5 15.75 C10.82195312 14.95335937 10.14390625 14.15671875 9.4453125 13.3359375 C3.74324915 6.78640963 -1.57558369 1.59706706 -9.5 -2.25 C-10.16128906 -2.57484375 -10.82257813 -2.8996875 -11.50390625 -3.234375 C-22.81722674 -8.4145563 -37.02133032 -7.4283619 -48.5 -3.25 C-60.40100722 1.88470876 -67.40474702 9.48301722 -73.5 20.75 C-74.5 17.75 -74.5 17.75 -73.56640625 15.76953125 C-65.15789004 3.42976071 -54.85542414 -5.15598728 -40.16015625 -8.8359375 C-25.50502719 -11.11705891 -12.22389662 -8.68139922 0 0 Z " fill="#C2F5F7" transform="translate(346.5,159.25)"/>
<path d="M0 0 C0.33 0.66 0.66 1.32 1 2 C1.66 2.268125 2.32 2.53625 3 2.8125 C5 4 5 4 5.625 6.4375 C5.74875 7.283125 5.8725 8.12875 6 9 C6.99 10.485 6.99 10.485 8 12 C6.625 13.5 6.625 13.5 5 15 C4.34 15 3.68 15 3 15 C3 15.66 3 16.32 3 17 C-0.2299284 18.6149642 -3.49927739 18.43434892 -7 18 C-10.5 16.625 -10.5 16.625 -13 14 C-13.73119579 10.56337979 -13.87728369 7.41229175 -13 4 C-8.94691882 0.26885398 -5.36866879 -0.14912969 0 0 Z M-9.0625 5.625 C-10.38214824 8.96810888 -9.38636891 10.78946147 -8 14 C-3.40145723 15.12319413 -3.40145723 15.12319413 1 14 C2.57279672 10.85440657 1.7415208 8.33684358 1 5 C-0.16475062 3.62228238 -0.16475062 3.62228238 -3.375 3.6875 C-6.95967884 3.66229805 -6.95967884 3.66229805 -9.0625 5.625 Z " fill="#7BDADD" transform="translate(279,226)"/>
<path d="M0 0 C2 2 2 2 2.1953125 5.0390625 C2.17210937 6.22242188 2.14890625 7.40578125 2.125 8.625 C2.10695313 9.81351562 2.08890625 11.00203125 2.0703125 12.2265625 C2.04710937 13.14179688 2.02390625 14.05703125 2 15 C1.67 15 1.34 15 1 15 C0.505 9.06 0.505 9.06 0 3 C-1.98 2.67 -3.96 2.34 -6 2 C-6.13535156 3.08796875 -6.27070313 4.1759375 -6.41015625 5.296875 C-8.11052993 17.45766996 -11.13973178 27.21122849 -20.8125 35.5 C-29.02404038 41.3828946 -35.65521434 43.33002836 -45.6875 43.4375 C-46.89974243 43.45296875 -46.89974243 43.45296875 -48.13647461 43.46875 C-53.47028658 43.38980366 -57.23558223 42.40453213 -62 40 C-58.30932286 38.8400729 -56.04552839 39.50112055 -52.3359375 40.5078125 C-42.43813164 42.59330337 -33.75644914 40.52218194 -25.3125 35.25 C-17.38393038 29.67371107 -12.17706808 22.48579663 -10 13 C-9.75962318 10.41102343 -9.56642433 7.83152481 -9.44140625 5.234375 C-8.37915286 -0.14269525 -4.93851854 -0.52537431 0 0 Z " fill="#B8F3F4" transform="translate(362,268)"/>
<path d="M0 0 C6.21073976 2.57984575 9.51206804 8.60010974 12.9375 14.125 C15.17492953 19.8413596 14.21027558 26.94873615 14 33 C17.63 33 21.26 33 25 33 C24.77741845 24.13012518 24.40172464 16.37698685 20.7421875 8.13671875 C20 6 20 6 21 3 C27.53852887 12.02939702 27.72554653 23.31214148 27 34 C26 35 26 35 23.3125 35.1328125 C22.219375 35.13023437 21.12625 35.12765625 20 35.125 C18.906875 35.12757813 17.81375 35.13015625 16.6875 35.1328125 C14 35 14 35 13 34 C12.89146509 32.25138208 12.81416572 30.50080759 12.75 28.75 C11.94443313 18.4973308 8.61233151 9.75579914 1.35546875 2.390625 C0 1 0 1 0 0 Z " fill="#AEEFF0" transform="translate(339,172)"/>
<path d="M0 0 C1.34540051 2.69080102 0.71610898 4.13556407 0 7 C-0.33 7.66 -0.66 8.32 -1 9 C-1.66 9 -2.32 9 -3 9 C-2.95875 10.051875 -2.9175 11.10375 -2.875 12.1875 C-2.85331681 18.20458589 -3.99023708 24.0856743 -5 30 C-2.69 30 -0.38 30 2 30 C1.94779297 28.69675781 1.94779297 28.69675781 1.89453125 27.3671875 C1.62565905 15.92091388 1.62565905 15.92091388 5 11 C5.66 11 6.32 11 7 11 C6.690625 12.051875 6.38125 13.10375 6.0625 14.1875 C4.57796206 20.03089403 4.34748289 26.00134801 4 32 C0.37 32 -3.26 32 -7 32 C-7.41350674 20.55964676 -6.54633139 9.7066293 0 0 Z M3 3 C3.33 3.66 3.66 4.32 4 5 C3.01 6.485 3.01 6.485 2 8 C1.67 6.68 1.34 5.36 1 4 C1.66 3.67 2.32 3.34 3 3 Z " fill="#20AFB6" transform="translate(276,173)"/>
<path d="M0 0 C0.556875 0.474375 1.11375 0.94875 1.6875 1.4375 C3.90401153 3.15453424 3.90401153 3.15453424 6.5625 3.5 C9.45140657 4.09259622 9.96446471 4.95951207 12 7 C21.86512066 13.30385304 34.0885991 10.97297343 45 9 C45 8.34 45 7.68 45 7 C46.32 7 47.64 7 49 7 C49 6.34 49 5.68 49 5 C49.99 4.34 50.98 3.68 52 3 C52.99 3.33 53.98 3.66 55 4 C45.21455112 11.67437489 37.50887254 14.83187083 25 14 C16.28853212 12.86789294 9.40879837 11.19893848 3 5 C2.43667969 4.484375 1.87335938 3.96875 1.29296875 3.4375 C0 2 0 2 0 0 Z " fill="#26B3B7" transform="translate(287,296)"/>
<path d="M0 0 C0.33 0.99 0.66 1.98 1 3 C1.66 3.33 2.32 3.66 3 4 C3.15451895 13.27113703 3.15451895 13.27113703 2 16 C-1.157776 18.105184 -1.95397134 18.25289344 -5.5625 18.1875 C-6.34753906 18.18105469 -7.13257813 18.17460937 -7.94140625 18.16796875 C-10 18 -10 18 -12 17 C-13.18337118 12.03317447 -13.73337707 7.5278689 -11.5 2.875 C-7.85838263 0.14378697 -4.45089181 0 0 0 Z M-11 5 C-11.32460261 9.03083011 -11.32460261 9.03083011 -11 13 C-8.17431454 15.32038095 -8.17431454 15.32038095 -4.9375 14.8125 C-1.70259047 14.26245502 -1.70259047 14.26245502 0 11 C-0.18232592 7.17251095 -0.18232592 7.17251095 -2 4 C-3.87321948 3.83946185 -3.87321948 3.83946185 -6 3.875 C-6.721875 3.87242187 -7.44375 3.86984375 -8.1875 3.8671875 C-10.02089415 3.80304724 -10.02089415 3.80304724 -11 5 Z " fill="#88DEE2" transform="translate(364,226)"/>
<path d="M0 0 C1.56809437 2.82081545 2.30291646 5.07900018 2.59423828 8.28686523 C2.67417023 9.1255162 2.75410217 9.96416718 2.8364563 10.82823181 C2.91362885 11.72925125 2.99080139 12.63027069 3.0703125 13.55859375 C3.15626678 14.49872818 3.24222107 15.43886261 3.33078003 16.40748596 C3.51105171 18.40013226 3.68731261 20.39314488 3.85986328 22.38647461 C4.12139876 25.39605919 4.39753445 28.40402918 4.67578125 31.41210938 C5.56826605 41.29873449 6.31937103 51.06519519 6 61 C0.63254326 52.9488149 1.69244593 39.24037605 1.34155273 29.79125977 C1.17231099 25.11366505 1.17231099 25.11366505 0.4765625 20.49609375 C-0.27163278 16.57726764 -0.10332338 12.66620922 -0.0625 8.6875 C-0.05798828 7.85154297 -0.05347656 7.01558594 -0.04882812 6.15429688 C-0.03710548 4.10283351 -0.01917203 2.05140727 0 0 Z " fill="#2AB4BB" transform="translate(383,224)"/>
<path d="M0 0 C0.33 0 0.66 0 1 0 C1.13210503 16.69807545 0.85501378 33.32268325 0 50 C-0.33 50 -0.66 50 -1 50 C-1.66 52.64 -2.32 55.28 -3 58 C-3.33 58 -3.66 58 -4 58 C-3.85967508 54.81223289 -3.71173356 51.6248615 -3.5625 48.4375 C-3.52318359 47.54224609 -3.48386719 46.64699219 -3.44335938 45.72460938 C-3.40146484 44.84482422 -3.35957031 43.96503906 -3.31640625 43.05859375 C-3.27974854 42.25736084 -3.24309082 41.45612793 -3.20532227 40.63061523 C-3.04917244 38.63000361 -2.80199997 36.63626487 -2.51367188 34.65039062 C-1.99152132 30.9397466 -1.69759027 27.27461707 -1.46484375 23.53515625 C-1.42186661 22.85698349 -1.37888947 22.17881073 -1.33460999 21.48008728 C-1.19964561 19.34104473 -1.06850637 17.20178823 -0.9375 15.0625 C-0.84595732 13.60089552 -0.75416277 12.13930678 -0.66210938 10.67773438 C-0.43849697 7.11866684 -0.21831138 3.55939709 0 0 Z " fill="#39B8BD" transform="translate(245,270)"/>
<path d="M0 0 C1.51481453 3.9587153 0.5077645 7.51207267 -0.375 11.5 C-0.51421875 12.16386719 -0.6534375 12.82773437 -0.796875 13.51171875 C-1.46941002 16.69039842 -2.18179991 19.85554476 -3 23 C-1.02 22.34 0.96 21.68 3 21 C3 20.34 3 19.68 3 19 C3.99 19 4.98 19 6 19 C6 18.34 6 17.68 6 17 C7.98 16.67 9.96 16.34 12 16 C9.28423427 19.08565497 5.91344172 21.07287319 2.4375 23.1875 C1.84775391 23.55552734 1.25800781 23.92355469 0.65039062 24.30273438 C-3.74830415 27 -3.74830415 27 -6 27 C-5.77133462 25.39280903 -5.54232847 23.78566609 -5.31201172 22.17871094 C-5.09619862 20.67173435 -4.88177064 19.16455899 -4.66845703 17.65722656 C-4.30921406 15.14501702 -3.93670047 12.63502163 -3.5625 10.125 C-3.44068359 9.25875 -3.31886719 8.3925 -3.19335938 7.5 C-3.00676758 6.26636719 -3.00676758 6.26636719 -2.81640625 5.0078125 C-2.70756104 4.26160645 -2.59871582 3.51540039 -2.48657227 2.74658203 C-2.32600342 2.17020996 -2.16543457 1.59383789 -2 1 C-1.34 0.67 -0.68 0.34 0 0 Z " fill="#39B6B8" transform="translate(255,362)"/>
<path d="M0 0 C0.66 0.33 1.32 0.66 2 1 C-10.40763746 9.99104164 -22.73612336 13.82719374 -38.09375 11.5390625 C-45.26549686 9.96793239 -50.95802536 7.13046496 -57 3 C-54 2 -54 2 -51.94140625 2.890625 C-51.15636719 3.33921875 -50.37132812 3.7878125 -49.5625 4.25 C-38.37863402 10.04424605 -26.84855163 11.78067803 -14.65625 7.94921875 C-9.37550105 5.83822629 -4.55078335 3.41308752 0 0 Z " fill="#AFF0F2" transform="translate(345,310)"/>
<path d="M0 0 C0.33 0 0.66 0 1 0 C1.02953103 3.60414885 1.04697407 7.20826576 1.0625 10.8125 C1.07087891 11.81732422 1.07925781 12.82214844 1.08789062 13.85742188 C1.1416451 30.57506469 1.1416451 30.57506469 -1 37 C-1.2173955 39.06266705 -1.3894543 41.13025111 -1.53515625 43.19921875 C-1.62216797 44.40771484 -1.70917969 45.61621094 -1.79882812 46.86132812 C-1.88583984 48.12396484 -1.97285156 49.38660156 -2.0625 50.6875 C-2.15337891 51.96173828 -2.24425781 53.23597656 -2.33789062 54.54882812 C-2.56205947 57.69899026 -2.78261653 60.84936354 -3 64 C-3.33 64 -3.66 64 -4 64 C-4.15007125 54.99453373 -3.68787525 46.04585076 -3.125 37.0625 C-3.08086975 36.34087677 -3.0367395 35.61925354 -2.99127197 34.87576294 C-2.27547526 23.21880199 -1.32549588 11.60513947 0 0 Z " fill="#BFF4F7" transform="translate(248,216)"/>
<path d="M0 0 C0.99 0 1.98 0 3 0 C5.35119399 3.52679099 5.21443452 5.02879485 5.125 9.1875 C5.10695313 10.27417969 5.08890625 11.36085938 5.0703125 12.48046875 C5.03550781 13.72763672 5.03550781 13.72763672 5 15 C4.01 15.33 3.02 15.66 2 16 C1.37031953 17.83886102 1.37031953 17.83886102 1 20 C-1.49492666 26.44229889 -4.10555046 33.07036697 -10 37 C-8.78362177 34.55501863 -7.55050044 32.11968677 -6.30859375 29.6875 C-5.68480251 28.45838069 -5.06110693 27.22921283 -4.4375 26 C-4.12103516 25.38382812 -3.80457031 24.76765625 -3.47851562 24.1328125 C-1.96229819 21.13256908 -0.60626279 18.32198787 0 15 C0.66 15 1.32 15 2 15 C1.85930804 12.87465341 1.71229079 10.74972471 1.5625 8.625 C1.48128906 7.44164062 1.40007812 6.25828125 1.31640625 5.0390625 C1.18915064 2.08481099 1.18915064 2.08481099 0 0 Z " fill="#6ED3D8" transform="translate(362,268)"/>
<path d="M0 0 C0 0.66 0 1.32 0 2 C-0.99 2 -1.98 2 -3 2 C-3 2.66 -3 3.32 -3 4 C-4.98 4.33 -6.96 4.66 -9 5 C-9 5.66 -9 6.32 -9 7 C-13.7098571 7.92870422 -18.27791031 8.15180442 -23.0625 8.125 C-24.10374023 8.13080078 -24.10374023 8.13080078 -25.16601562 8.13671875 C-28.90333371 8.12962033 -32.36710894 7.89228903 -36 7 C-36 6.34 -36 5.68 -36 5 C-34.83984375 5.03480469 -33.6796875 5.06960938 -32.484375 5.10546875 C-22.61507014 5.31077061 -12.86268244 5.4435524 -3.8046875 0.8984375 C-2 0 -2 0 0 0 Z " fill="#27B3B9" transform="translate(340,316)"/>
<path d="M0 0 C6.17019144 0.04462142 11.32333643 0.71258292 16.9375 3.3125 C17.78054688 3.68761719 18.62359375 4.06273437 19.4921875 4.44921875 C24.60740584 6.85504102 28.78147848 9.48458545 32.9375 13.3125 C29.15710894 13.3125 27.95393216 12.1397471 24.875 10 C14.00413452 2.99338748 3.54038417 2.71063033 -9.0625 2.3125 C-6.17270289 -0.57729711 -4.02855188 0.01209775 0 0 Z " fill="#27B1B5" transform="translate(317.0625,151.6875)"/>
<path d="M0 0 C0.680625 0.680625 1.36125 1.36125 2.0625 2.0625 C2.52398437 2.51882813 2.98546875 2.97515625 3.4609375 3.4453125 C4.50801455 4.50301977 5.53359494 5.58234981 6.5390625 6.6796875 C12.45690085 12.99017863 19.55834387 17.77851155 28 20 C28 20.33 28 20.66 28 21 C22.29487604 21.58514092 17.88145044 19.78010225 13 17 C11.97839906 16.02207796 10.97440777 15.02495342 10 14 C9.34 13.67 8.68 13.34 8 13 C8 12.34 8 11.68 8 11 C7.01 11.33 6.02 11.66 5 12 C5 10.68 5 9.36 5 8 C4.34 8 3.68 8 3 8 C0.25624329 5.04518508 0 4.22528092 0 0 Z " fill="#28B2BB" transform="translate(276,300)"/>
<path d="M0 0 C9.71551312 -0.82685218 16.83056738 4.10684779 24.40234375 9.76171875 C28.23339553 13.06276036 31.17055526 16.82825895 34 21 C33.67 21.66 33.34 22.32 33 23 C32.32195312 22.20335937 31.64390625 21.40671875 30.9453125 20.5859375 C25.24324915 14.03640963 19.92441631 8.84706706 12 5 C11.00806641 4.51273438 11.00806641 4.51273438 9.99609375 4.015625 C6.72835003 2.5193795 3.55087049 1.53801068 0 1 C0 0.67 0 0.34 0 0 Z " fill="#AFEEEF" transform="translate(325,152)"/>
<path d="M0 0 C0.556875 0.474375 1.11375 0.94875 1.6875 1.4375 C3.90401153 3.15453424 3.90401153 3.15453424 6.5625 3.5 C9 4 9 4 10.33203125 5.40234375 C12.42543941 7.4075052 14.40780938 8.08415294 17.125 9.0625 C21.89124668 10.78249337 21.89124668 10.78249337 23 13 C13.73660132 11.64438068 6.30312418 9.27283559 0 2 C0 1.34 0 0.68 0 0 Z " fill="#68CED4" transform="translate(287,296)"/>
<path d="M0 0 C0.66 0 1.32 0 2 0 C2.60748589 10.97974499 -0.19371804 18.33573578 -7 27 C-7.66 27.33 -8.32 27.66 -9 28 C-8.22889319 24.40150155 -7.33920191 21.17180167 -4.5 18.6875 C-0.24895453 13.90507385 -0.46406501 6.0694819 0 0 Z " fill="#31B4BC" transform="translate(351,271)"/>
<path d="M0 0 C0.33 0 0.66 0 1 0 C1 8.91 1 17.82 1 27 C0.34 27 -0.32 27 -1 27 C-1.33 27.66 -1.66 28.32 -2 29 C-2.02698422 26.56242587 -2.04683099 24.12515085 -2.0625 21.6875 C-2.07087891 20.99720703 -2.07925781 20.30691406 -2.08789062 19.59570312 C-2.10307906 16.4516975 -2.00193327 14.00579981 -1 11 C-0.77820215 9.10787263 -0.59385985 7.21115528 -0.4375 5.3125 C-0.35371094 4.31863281 -0.26992187 3.32476562 -0.18359375 2.30078125 C-0.12300781 1.54152344 -0.06242188 0.78226563 0 0 Z " fill="#39B8BF" transform="translate(248,239)"/>
<path d="M0 0 C5.43263714 -0.36217581 5.43263714 -0.36217581 7.609375 1.02734375 C10.04189362 4.47796708 10.15877195 8.74465454 10.72851562 12.84375 C11.33475803 16.6605661 12.15207059 19.55963632 14.16015625 22.890625 C14.76730469 23.91671875 15.37445313 24.9428125 16 26 C15.67 26.66 15.34 27.32 15 28 C9.27454591 20.98591095 7.4435716 11.75640142 6 3 C2.86485916 2.0163289 2.86485916 2.0163289 -0.25 2.9375 C-0.8275 3.288125 -1.405 3.63875 -2 4 C-1.34 2.68 -0.68 1.36 0 0 Z " fill="#B2F1F4" transform="translate(271,268)"/>
<path d="M0 0 C1.32 0.33 2.64 0.66 4 1 C4.12375 1.763125 4.2475 2.52625 4.375 3.3125 C4.88102792 6.20267136 4.88102792 6.20267136 7 9 C5.625 10.5 5.625 10.5 4 12 C3.34 12 2.68 12 2 12 C2 12.66 2 13.32 2 14 C-1.21451269 15.60725635 -4.43612536 15.05748185 -8 15 C-8 14.67 -8 14.34 -8 14 C-6.3603125 13.62875 -6.3603125 13.62875 -4.6875 13.25 C-1.05481365 12.29135217 -1.05481365 12.29135217 1 10.1875 C2.69395625 6.4819707 1.23387409 3.70162226 0 0 Z " fill="#1AB2B7" transform="translate(280,229)"/>
<path d="M0 0 C1.6254308 0.14095064 3.25034051 0.28792087 4.875 0.4375 C5.77992188 0.51871094 6.68484375 0.59992188 7.6171875 0.68359375 C10 1 10 1 12 2 C12 2.66 12 3.32 12 4 C13.32 4.33 14.64 4.66 16 5 C15.67 5.66 15.34 6.32 15 7 C15.804375 7.28875 16.60875 7.5775 17.4375 7.875 C20 9 20 9 21 11 C17.2089881 9.55049545 13.6125362 7.84827434 10 6 C10 5.34 10 4.68 10 4 C7.03 3.505 7.03 3.505 4 3 C4 2.34 4 1.68 4 1 C2.68 0.67 1.36 0.34 0 0 Z " fill="#5ECCD0" transform="translate(318,161)"/>
<path d="M0 0 C0.91007812 0.00902344 1.82015625 0.01804687 2.7578125 0.02734375 C3.45648438 0.03894531 4.15515625 0.05054688 4.875 0.0625 C6.13737731 2.58725462 5.97356404 4.37450466 5.9375 7.1875 C5.92847656 8.09757812 5.91945313 9.00765625 5.91015625 9.9453125 C5.89855469 10.64398438 5.88695312 11.34265625 5.875 12.0625 C5.545 12.0625 5.215 12.0625 4.875 12.0625 C4.6796875 10.04427083 4.484375 8.02604167 4.2890625 6.0078125 C4.01125251 3.83581755 4.01125251 3.83581755 1.875 2.0625 C-1.16682893 1.81244614 -1.16682893 1.81244614 -4.125 2.0625 C-5.62243119 3.55993119 -5.45702693 5.05074239 -5.6875 7.125 C-5.831875 8.424375 -5.97625 9.72375 -6.125 11.0625 C-6.455 11.0625 -6.785 11.0625 -7.125 11.0625 C-7.125 7.7625 -7.125 4.4625 -7.125 1.0625 C-4.60024538 -0.19987731 -2.81299534 -0.03606404 0 0 Z " fill="#3EBCC1" transform="translate(275.125,266.9375)"/>
<path d="M0 0 C1.56454159 4.02014661 0.46223974 7.69925681 -0.4375 11.75 C-0.58509766 12.44738281 -0.73269531 13.14476562 -0.88476562 13.86328125 C-1.24868033 15.5772021 -1.62329068 17.28884581 -2 19 C-2.33 19 -2.66 19 -3 19 C-3.02717692 16.93757383 -3.0464758 14.87504297 -3.0625 12.8125 C-3.07410156 11.66394531 -3.08570313 10.51539063 -3.09765625 9.33203125 C-3.01127783 6.38479964 -2.82198363 3.82783048 -2 1 C-1.34 0.67 -0.68 0.34 0 0 Z " fill="#2CB7BC" transform="translate(255,362)"/>
<path d="M0 0 C1.34540051 2.69080102 0.71610898 4.13556407 0 7 C-0.33 7.66 -0.66 8.32 -1 9 C-1.66 9 -2.32 9 -3 9 C-3 10.32 -3 11.64 -3 13 C-3.66 13 -4.32 13 -5 13 C-3.91343356 8.06866002 -2.8990762 4.21683811 0 0 Z M3 3 C3.33 3.66 3.66 4.32 4 5 C3.01 6.485 3.01 6.485 2 8 C1.67 6.68 1.34 5.36 1 4 C1.66 3.67 2.32 3.34 3 3 Z " fill="#33B9C3" transform="translate(276,173)"/>
<path d="M0 0 C-1.625 6.75 -1.625 6.75 -5 9 C-5.99 9 -6.98 9 -8 9 C-8 9.66 -8 10.32 -8 11 C-9.32 10.67 -10.64 10.34 -12 10 C-10.5459375 9.1028125 -10.5459375 9.1028125 -9.0625 8.1875 C-5.76947958 6.28872491 -5.76947958 6.28872491 -5 3 C-2.44444444 0 -2.44444444 0 0 0 Z " fill="#66CBD0" transform="translate(352,305)"/>
<path d="M0 0 C5.7858359 3.24571282 9.14729638 7.6654873 13 13 C12.67 13.66 12.34 14.32 12 15 C10.18159615 13.06775868 8.37025532 11.12966092 6.5625 9.1875 C6.04623047 8.64029297 5.52996094 8.09308594 4.99804688 7.52929688 C2.68923395 5.03940058 1.08641486 3.25924458 0 0 Z " fill="#C4F4F5" transform="translate(346,160)"/>
<path d="M0 0 C1.90859713 2.8628957 2.36062965 4.17955604 2.9375 7.4375 C3.66360409 11.01574097 4.5515178 13.21763387 7 16 C7 16.66 7 17.32 7 18 C4 17 4 17 2.35546875 14.83203125 C0.82545874 11.63532446 0.50621378 9.21309073 0.3125 5.6875 C0.24675781 4.61886719 0.18101562 3.55023438 0.11328125 2.44921875 C0.07589844 1.64097656 0.03851563 0.83273437 0 0 Z " fill="#39BCC0" transform="translate(269,282)"/>
<path d="M0 0 C0.33 0 0.66 0 1 0 C0.72694671 6.55327899 -1.81211141 10.06930548 -6 15 C-6.33 14.01 -6.66 13.02 -7 12 C-5.71759275 9.43518551 -4.44555675 7.42841995 -2.375 5.4375 C-0.71515152 3.70220387 -0.40263517 2.33528396 0 0 Z " fill="#22B2B4" transform="translate(349,284)"/>
<path d="M0 0 C0.33 0.99 0.66 1.98 1 3 C1.66 3.33 2.32 3.66 3 4 C3 6.64 3 9.28 3 12 C2.67 12 2.34 12 2 12 C1.5978125 10.329375 1.5978125 10.329375 1.1875 8.625 C0.34190981 4.78159049 0.34190981 4.78159049 -3 3 C-4.9896995 2.60986284 -6.99019869 2.26797351 -9 2 C-9 1.67 -9 1.34 -9 1 C-2.25 0 -2.25 0 0 0 Z " fill="#26B3BB" transform="translate(364,226)"/>
<path d="M0 0 C5.18720934 4.20584541 6.47275469 8.60543632 8 15 C5.31874582 12.61753661 3.88576541 10.1454496 2.3125 6.9375 C1.87550781 6.05964844 1.43851562 5.18179688 0.98828125 4.27734375 C0 2 0 2 0 0 Z " fill="#3EB7BD" transform="translate(354,170)"/>
<path d="M0 0 C4.20390632 1.50139512 5.89110738 4.17275043 8 8 C7.67 8.99 7.34 9.98 7 11 C3.85014682 7.43569245 1.4859916 4.59306496 0 0 Z " fill="#2EB5B8" transform="translate(284,289)"/>
<path d="M0 0 C0.99 0 1.98 0 3 0 C3 3 3 3 1.1875 5.1875 C-1 7 -1 7 -4 7 C-2.92598892 4.08482708 -2.22189824 2.22189824 0 0 Z " fill="#28B2BC" transform="translate(354,303)"/>
<path d="M0 0 C0.33 1.32 0.66 2.64 1 4 C0.195625 4.45375 -0.60875 4.9075 -1.4375 5.375 C-4.08856572 6.74725665 -4.08856572 6.74725665 -5 9 C-5.66 9 -6.32 9 -7 9 C-5.44499019 5.18315774 -2.96404505 2.80804268 0 0 Z " fill="#30B6BE" transform="translate(285,163)"/>
<path d="M0 0 C0.66 0 1.32 0 2 0 C2 3.3 2 6.6 2 10 C1.01 9.34 0.02 8.68 -1 8 C-1.25 4.4375 -1.25 4.4375 -1 1 C-0.67 0.67 -0.34 0.34 0 0 Z " fill="#2EB5BD" transform="translate(350,230)"/>
<path d="M0 0 C2.63249349 2.45699392 4.78137264 4.56568654 6 8 C5.67 8.99 5.34 9.98 5 11 C4.16151196 9.54462432 3.32936066 8.08559627 2.5 6.625 C1.80390625 5.40683594 1.80390625 5.40683594 1.09375 4.1640625 C0 2 0 2 0 0 Z " fill="#ADEEEF" transform="translate(271,289)"/>
<path d="M0 0 C0.66 0.33 1.32 0.66 2 1 C2 1.66 2 2.32 2 3 C4.64 3.33 7.28 3.66 10 4 C10 4.33 10 4.66 10 5 C2.49230769 5.36923077 2.49230769 5.36923077 0 3.5 C-0.33 3.005 -0.66 2.51 -1 2 C-0.67 1.34 -0.34 0.68 0 0 Z " fill="#43BEC2" transform="translate(268,238)"/>
<path d="M0 0 C1.32 0.33 2.64 0.66 4 1 C4 3.64 4 6.28 4 9 C3.01 9.495 3.01 9.495 2 10 C2.04125 9.0925 2.0825 8.185 2.125 7.25 C2.00468444 4.1217954 1.6085292 2.61385994 0 0 Z " fill="#2EB4B5" transform="translate(280,229)"/>
</svg>
