<svg width="21" height="20" viewBox="0 0 21 20" fill="none" xmlns="http://www.w3.org/2000/svg">
<path d="M8.00002 17.738C8.46026 17.738 8.83335 17.3916 8.83335 16.9642C8.83335 16.5369 8.46026 16.1904 8.00002 16.1904C7.53978 16.1904 7.16669 16.5369 7.16669 16.9642C7.16669 17.3916 7.53978 17.738 8.00002 17.738Z" stroke="#1C1C1E" stroke-width="2" stroke-linecap="round" stroke-linejoin="round"/>
<path d="M17.1666 17.738C17.6269 17.738 18 17.3916 18 16.9642C18 16.5369 17.6269 16.1904 17.1666 16.1904C16.7064 16.1904 16.3333 16.5369 16.3333 16.9642C16.3333 17.3916 16.7064 17.738 17.1666 17.738Z" stroke="#1C1C1E" stroke-width="2" stroke-linecap="round" stroke-linejoin="round"/>
<path d="M1.33331 1.48804H4.66665L6.89998 11.8493C6.97618 12.2056 7.1849 12.5256 7.4896 12.7534C7.7943 12.9811 8.17556 13.1021 8.56665 13.0952H16.6666C17.0577 13.1021 17.439 12.9811 17.7437 12.7534C18.0484 12.5256 18.2571 12.2056 18.3333 11.8493L19.6666 5.35708H5.49998" stroke="#1C1C1E" stroke-width="2" stroke-linecap="round" stroke-linejoin="round"/>
</svg>
